<svg xmlns="http://www.w3.org/2000/svg" width="24.219" height="23.91" viewBox="0 0 24.219 23.91">
  <defs>
    <style>
      .cls-1 {
        fill: #f44336;
        fill-rule: evenodd;
      }
    </style>
  </defs>
  <path id="Call_icon" data-name="Call icon" class="cls-1" d="M630.825,3774c-2.6,0-7.351-2.97-11.816-7.38-4.859-4.8-9.02-11.02-6.673-13.33l3.357-2.95a1.037,1.037,0,0,1,.735-0.25,1.026,1.026,0,0,1,.7.34l4.374,4.98a0.992,0.992,0,0,1,.14,1.1l-1.693,3.34,6.035,5.96,3.386-1.67a1,1,0,0,1,1.11.14l5.045,4.29a0.984,0.984,0,0,1,.1,1.41l-2.924,3.29A2.5,2.5,0,0,1,630.825,3774Zm-14.555-21.5-2.53,2.22c-0.571.56,0.981,4.85,6.7,10.49,4.465,4.41,8.685,6.79,10.389,6.79a0.6,0.6,0,0,0,.381-0.08l2.227-2.5-3.764-3.2-3.436,1.69a1.007,1.007,0,0,1-1.164-.18L618,3760.75a0.986,0.986,0,0,1-.189-1.15l1.717-3.39ZM632,3760h-5a1,1,0,0,1-1-1v-5a0.774,0.774,0,0,1,.791-0.92,1,1,0,0,1,1.009.99v3.99h4.036a1,1,0,0,1,1.009.99A0.836,0.836,0,0,1,632,3760Zm-5.209.05a1.03,1.03,0,0,1-.713-0.29,0.989,0.989,0,0,1,0-1.41l8.072-7.97a1.016,1.016,0,0,1,1.427,0,0.989,0.989,0,0,1,0,1.41l-8.072,7.97A1.034,1.034,0,0,1,626.791,3760.05Z" transform="translate(-611.656 -3750.09)"/>
</svg>
