<svg xmlns="http://www.w3.org/2000/svg" width="48" height="48" viewBox="0 0 48 48">
  <defs>
    <style>
      .cls-1 {
        fill: #ef9a9a;
        fill-rule: evenodd;
      }
    </style>
  </defs>
  <path id="Cup_icon" data-name="Cup icon" class="cls-1" d="M307,3410h-4a1,1,0,0,1,0-2h4a7,7,0,1,0,0-14h-4a1,1,0,0,1,0-2h4A9,9,0,1,1,307,3410Zm-30-29a1,1,0,0,1-1-1v-8a1,1,0,0,1,2,0v8A1,1,0,0,1,277,3381Zm9,0a1,1,0,0,1-1-1v-8a1,1,0,0,1,2,0v8A1,1,0,0,1,286,3381Zm9,0a1,1,0,0,1-1-1v-8a1,1,0,0,1,2,0v8A1,1,0,0,1,295,3381Zm0,38H277a9.012,9.012,0,0,1-9-9v-17.9a1,1,0,0,1,2,0V3410a7.008,7.008,0,0,0,7,7h18a7.008,7.008,0,0,0,7-7v-17.9a1,1,0,0,1,2,0V3410A9.012,9.012,0,0,1,295,3419Zm8-24.38a1,1,0,0,1-1-1V3387H270v6.62a1,1,0,0,1-2,0V3387a2,2,0,0,1,2-2h32a2,2,0,0,1,2,2v6.62A1,1,0,0,1,303,3394.62Z" transform="translate(-268 -3371)"/>
</svg>
