<svg xmlns="http://www.w3.org/2000/svg" width="41.906" height="48" viewBox="0 0 41.906 48">
  <defs>
    <style>
      .cls-1 {
        fill: #ef9a9a;
        fill-rule: evenodd;
      }
    </style>
  </defs>
  <path id="Key_icon" data-name="Key icon" class="cls-1" d="M24.078,924a1,1,0,0,1-.706-0.293l-5.987-6a1,1,0,0,1,1.411-1.414l5.987,6A1,1,0,0,1,24.078,924Zm21.951-22A13,13,0,1,1,59,889,13,13,0,0,1,46.029,902Zm0-24A11,11,0,1,0,57,889,11,11,0,0,0,46.029,878ZM18.091,918a1,1,0,0,1-.706-1.706l19.441-19.547a1,1,0,1,1,1.413,1.412L18.8,917.705A0.992,0.992,0,0,1,18.091,918Zm11.973,0a1,1,0,0,1-.706-0.293l-5.987-6a1,1,0,0,1,1.411-1.414l5.987,6A1,1,0,0,1,30.064,918Z" transform="translate(-17.094 -876)"/>
</svg>
