<svg xmlns="http://www.w3.org/2000/svg" width="40" height="48" viewBox="0 0 40 48">
  <defs>
    <style>
      .cls-1 {
        fill: #ef9a9a;
        fill-rule: evenodd;
      }
    </style>
  </defs>
  <path id="Lock_icon" data-name="Lock icon" class="cls-1" d="M708,3294H674a3.006,3.006,0,0,1-3-3v-26a3.006,3.006,0,0,1,3-3h34a3.006,3.006,0,0,1,3,3v26A3.006,3.006,0,0,1,708,3294Zm-34-30a1,1,0,0,0-1,1v26a1,1,0,0,0,1,1h34a1,1,0,0,0,1-1v-26a1,1,0,0,0-1-1H674Zm17,14a3,3,0,1,1,3-3A3.006,3.006,0,0,1,691,3278Zm0-4a1,1,0,1,0,1,1A1,1,0,0,0,691,3274Zm0,10a1,1,0,0,1-1-1v-6a1,1,0,0,1,2,0v6A1,1,0,0,1,691,3284Zm11-20.13a1,1,0,0,1-1-1V3258a1,1,0,0,1,2,0v4.87A1,1,0,0,1,702,3263.87Zm-22,0a1,1,0,0,1-1-1V3258a1,1,0,0,1,2,0v4.87A1,1,0,0,1,680,3263.87Zm22-4.87a1,1,0,0,1-1-1,10,10,0,0,0-20,0,1,1,0,0,1-2,0,12,12,0,0,1,24,0A1,1,0,0,1,702,3259Z" transform="translate(-671 -3246)"/>
</svg>
