<svg xmlns="http://www.w3.org/2000/svg" width="24" height="22" viewBox="0 0 24 22">
  <defs>
    <style>
      .cls-1 {
        fill: #f44336;
        fill-rule: evenodd;
      }
    </style>
  </defs>
  <path id="Mail_icon" data-name="Mail icon" class="cls-1" d="M866,3774a1,1,0,0,1-.782-1.62,9.3,9.3,0,0,0,1.718-3.72c-2.49-1.25-4.936-3.89-4.936-7.2,0-5.22,5.383-9.46,12-9.46s12,4.24,12,9.46c0,5.26-5.383,9.54-12,9.54h-1.436c-1.956,2.84-6.341,2.99-6.538,3H866Zm8-20c-5.514,0-10,3.35-10,7.46,0,2.56,2.191,4.78,4.355,5.64a1,1,0,0,1,.629.93,8.354,8.354,0,0,1-.98,3.64,4.818,4.818,0,0,0,3.107-2.13A1,1,0,0,1,872,3769h2c5.514,0,10-3.38,10-7.54C884,3757.35,879.514,3754,874,3754Z" transform="translate(-862 -3752)"/>
</svg>
