<svg xmlns="http://www.w3.org/2000/svg" width="18" height="24" viewBox="0 0 18 24">
  <defs>
    <style>
      .cls-1 {
        fill: #f44336;
        fill-rule: evenodd;
      }
    </style>
  </defs>
  <path id="Pin_icon" data-name="Pin icon" class="cls-1" d="M140,3763.07a4,4,0,1,1,4-4A4,4,0,0,1,140,3763.07Zm0-6a2,2,0,1,0,2,2A2,2,0,0,0,140,3757.07Zm0,16.93a1,1,0,0,1-.652-0.24c-0.34-.29-8.348-7.26-8.348-14.72a9,9,0,1,1,18,0c0,7.46-8.008,14.43-8.349,14.72A1,1,0,0,1,140,3774Zm0-22a7.029,7.029,0,0,0-7,7.04c0,5.4,5.148,10.83,7,12.6,1.851-1.78,7-7.21,7-12.6A7.03,7.03,0,0,0,140,3752Z" transform="translate(-131 -3750)"/>
</svg>
