<svg xmlns="http://www.w3.org/2000/svg" width="48" height="48" viewBox="0 0 48 48">
  <defs>
    <style>
      .cls-1 {
        fill: #ef9a9a;
        fill-rule: evenodd;
      }
    </style>
  </defs>
  <path id="Umbrella_icon" data-name="Umbrella icon" class="cls-1" d="M687,3378a1,1,0,0,1-1-1v-4a1,1,0,0,1,2,0v4A1,1,0,0,1,687,3378Zm-6.176,42a6.763,6.763,0,0,1-6.824-7,1,1,0,0,1,2,0,4.752,4.752,0,0,0,4.824,5,5.19,5.19,0,0,0,5.176-5.19V3396a1,1,0,0,1,2,0v16.81A7.194,7.194,0,0,1,680.824,3420Zm27.618-23H665.558a2.7,2.7,0,0,1-2.558-2.69c0-11.56,12.073-17.6,24-17.6s24,6.03,24,17.55A2.767,2.767,0,0,1,708.442,3397ZM687,3378.71c-10.933,0-22,5.36-22,15.6a0.76,0.76,0,0,0,.558.69h42.884a0.816,0.816,0,0,0,.558-0.74C709,3384.05,697.933,3378.71,687,3378.71Z" transform="translate(-663 -3372)"/>
</svg>
