<svg xmlns="http://www.w3.org/2000/svg" width="48" height="48" viewBox="0 0 48 48">
  <defs>
    <style>
      .cls-1 {
        fill: #ef9a9a;
        fill-rule: evenodd;
      }
    </style>
  </defs>
  <path id="WiFi_icon" data-name="WiFi icon" class="cls-1" d="M278,3295a8,8,0,1,1,8-8A8.01,8.01,0,0,1,278,3295Zm0-14a6,6,0,1,0,6,6A6.005,6.005,0,0,0,278,3281Zm39,10a1,1,0,0,1-1-1v-3.89A37.154,37.154,0,0,0,278.889,3249H275a1,1,0,0,1,0-2h3.889A39.158,39.158,0,0,1,318,3286.11V3290A1,1,0,0,1,317,3291Zm-16,0a1,1,0,0,1-1-1v-3.82A21.2,21.2,0,0,0,278.824,3265H275a1,1,0,0,1,0-2h3.824A23.205,23.205,0,0,1,302,3286.18V3290A1,1,0,0,1,301,3291Z" transform="translate(-270 -3247)"/>
</svg>
